<mxfile host="app.diagrams.net" agent="Mozilla/5.0 (X11; Linux x86_64) AppleWebKit/537.36 (KHTML, like Gecko) Chrome/141.0.0.0 Safari/537.36" version="28.2.5">
  <diagram name="Página-1" id="QpKCGUdBIGSOlYl-Du1n">
    <mxGraphModel dx="1426" dy="679" grid="1" gridSize="10" guides="1" tooltips="1" connect="1" arrows="1" fold="1" page="1" pageScale="1" pageWidth="827" pageHeight="1169" math="0" shadow="0">
      <root>
        <mxCell id="0" />
        <mxCell id="1" parent="0" />
        <mxCell id="Wk8HpcPnZ-8Hc3H_M3Av-1" value="VISTA" style="rounded=0;whiteSpace=wrap;html=1;" vertex="1" parent="1">
          <mxGeometry x="120" y="20" width="120" height="60" as="geometry" />
        </mxCell>
        <mxCell id="Wk8HpcPnZ-8Hc3H_M3Av-2" value="CONTROLADOR" style="rounded=0;whiteSpace=wrap;html=1;" vertex="1" parent="1">
          <mxGeometry x="320" y="20" width="120" height="60" as="geometry" />
        </mxCell>
        <mxCell id="Wk8HpcPnZ-8Hc3H_M3Av-3" value="MODELO" style="rounded=0;whiteSpace=wrap;html=1;" vertex="1" parent="1">
          <mxGeometry x="520" y="20" width="120" height="60" as="geometry" />
        </mxCell>
        <mxCell id="Wk8HpcPnZ-8Hc3H_M3Av-4" style="edgeStyle=orthogonalEdgeStyle;rounded=0;orthogonalLoop=1;jettySize=auto;html=1;exitX=0.5;exitY=1;exitDx=0;exitDy=0;entryX=1;entryY=0.5;entryDx=0;entryDy=0;" edge="1" parent="1" source="Wk8HpcPnZ-8Hc3H_M3Av-5" target="Wk8HpcPnZ-8Hc3H_M3Av-29">
          <mxGeometry relative="1" as="geometry" />
        </mxCell>
        <mxCell id="Wk8HpcPnZ-8Hc3H_M3Av-5" value="recuperar datos de préstamo" style="rounded=1;whiteSpace=wrap;html=1;" vertex="1" parent="1">
          <mxGeometry x="320" y="600" width="120" height="40" as="geometry" />
        </mxCell>
        <mxCell id="Wk8HpcPnZ-8Hc3H_M3Av-6" value="" style="ellipse;whiteSpace=wrap;html=1;aspect=fixed;fillStyle=solid;fillColor=light-dark(#FFFFFF,#121212);" vertex="1" parent="1">
          <mxGeometry x="170" y="1090" width="20" height="20" as="geometry" />
        </mxCell>
        <mxCell id="Wk8HpcPnZ-8Hc3H_M3Av-7" style="edgeStyle=orthogonalEdgeStyle;rounded=0;orthogonalLoop=1;jettySize=auto;html=1;exitX=1;exitY=0.5;exitDx=0;exitDy=0;entryX=0;entryY=0.5;entryDx=0;entryDy=0;" edge="1" parent="1" source="Wk8HpcPnZ-8Hc3H_M3Av-8" target="Wk8HpcPnZ-8Hc3H_M3Av-5">
          <mxGeometry relative="1" as="geometry" />
        </mxCell>
        <mxCell id="Wk8HpcPnZ-8Hc3H_M3Av-8" value="modificar préstamo" style="rounded=1;whiteSpace=wrap;html=1;" vertex="1" parent="1">
          <mxGeometry x="120" y="600" width="120" height="40" as="geometry" />
        </mxCell>
        <mxCell id="Wk8HpcPnZ-8Hc3H_M3Av-9" style="edgeStyle=orthogonalEdgeStyle;rounded=0;orthogonalLoop=1;jettySize=auto;html=1;exitX=0.5;exitY=1;exitDx=0;exitDy=0;entryX=0.5;entryY=0;entryDx=0;entryDy=0;" edge="1" parent="1" source="Wk8HpcPnZ-8Hc3H_M3Av-10" target="Wk8HpcPnZ-8Hc3H_M3Av-12">
          <mxGeometry relative="1" as="geometry" />
        </mxCell>
        <mxCell id="Wk8HpcPnZ-8Hc3H_M3Av-10" value="vista préstamos" style="rounded=1;whiteSpace=wrap;html=1;" vertex="1" parent="1">
          <mxGeometry x="120" y="120" width="120" height="40" as="geometry" />
        </mxCell>
        <mxCell id="Wk8HpcPnZ-8Hc3H_M3Av-11" style="edgeStyle=orthogonalEdgeStyle;rounded=0;orthogonalLoop=1;jettySize=auto;html=1;exitX=1;exitY=0.5;exitDx=0;exitDy=0;entryX=0;entryY=0.5;entryDx=0;entryDy=0;" edge="1" parent="1" source="Wk8HpcPnZ-8Hc3H_M3Av-12" target="Wk8HpcPnZ-8Hc3H_M3Av-14">
          <mxGeometry relative="1" as="geometry" />
        </mxCell>
        <mxCell id="Wk8HpcPnZ-8Hc3H_M3Av-12" value="listar préstamos" style="rounded=1;whiteSpace=wrap;html=1;" vertex="1" parent="1">
          <mxGeometry x="120" y="200" width="120" height="40" as="geometry" />
        </mxCell>
        <mxCell id="Wk8HpcPnZ-8Hc3H_M3Av-13" style="edgeStyle=orthogonalEdgeStyle;rounded=0;orthogonalLoop=1;jettySize=auto;html=1;exitX=1;exitY=0.5;exitDx=0;exitDy=0;entryX=0;entryY=0.5;entryDx=0;entryDy=0;" edge="1" parent="1" source="Wk8HpcPnZ-8Hc3H_M3Av-14" target="Wk8HpcPnZ-8Hc3H_M3Av-16">
          <mxGeometry relative="1" as="geometry" />
        </mxCell>
        <mxCell id="Wk8HpcPnZ-8Hc3H_M3Av-14" value="recuperar lista préstamos" style="rounded=1;whiteSpace=wrap;html=1;" vertex="1" parent="1">
          <mxGeometry x="320" y="200" width="120" height="40" as="geometry" />
        </mxCell>
        <mxCell id="Wk8HpcPnZ-8Hc3H_M3Av-15" style="edgeStyle=orthogonalEdgeStyle;rounded=0;orthogonalLoop=1;jettySize=auto;html=1;exitX=0.5;exitY=1;exitDx=0;exitDy=0;entryX=1;entryY=0.5;entryDx=0;entryDy=0;" edge="1" parent="1" source="Wk8HpcPnZ-8Hc3H_M3Av-16" target="Wk8HpcPnZ-8Hc3H_M3Av-21">
          <mxGeometry relative="1" as="geometry" />
        </mxCell>
        <mxCell id="Wk8HpcPnZ-8Hc3H_M3Av-16" value="recuperar préstamos" style="rounded=1;whiteSpace=wrap;html=1;" vertex="1" parent="1">
          <mxGeometry x="520" y="200" width="120" height="40" as="geometry" />
        </mxCell>
        <mxCell id="Wk8HpcPnZ-8Hc3H_M3Av-17" style="edgeStyle=orthogonalEdgeStyle;rounded=0;orthogonalLoop=1;jettySize=auto;html=1;exitX=0;exitY=0.5;exitDx=0;exitDy=0;entryX=1;entryY=0.5;entryDx=0;entryDy=0;" edge="1" parent="1" source="Wk8HpcPnZ-8Hc3H_M3Av-19" target="Wk8HpcPnZ-8Hc3H_M3Av-23">
          <mxGeometry relative="1" as="geometry" />
        </mxCell>
        <mxCell id="Wk8HpcPnZ-8Hc3H_M3Av-18" style="edgeStyle=orthogonalEdgeStyle;rounded=0;orthogonalLoop=1;jettySize=auto;html=1;exitX=0.5;exitY=1;exitDx=0;exitDy=0;entryX=1;entryY=0.5;entryDx=0;entryDy=0;" edge="1" parent="1" source="Wk8HpcPnZ-8Hc3H_M3Av-19" target="Wk8HpcPnZ-8Hc3H_M3Av-25">
          <mxGeometry relative="1" as="geometry" />
        </mxCell>
        <mxCell id="Wk8HpcPnZ-8Hc3H_M3Av-19" value="" style="rhombus;whiteSpace=wrap;html=1;" vertex="1" parent="1">
          <mxGeometry x="360" y="360" width="40" height="40" as="geometry" />
        </mxCell>
        <mxCell id="Wk8HpcPnZ-8Hc3H_M3Av-20" style="edgeStyle=orthogonalEdgeStyle;rounded=0;orthogonalLoop=1;jettySize=auto;html=1;exitX=0.5;exitY=1;exitDx=0;exitDy=0;entryX=0.5;entryY=0;entryDx=0;entryDy=0;" edge="1" parent="1" source="Wk8HpcPnZ-8Hc3H_M3Av-21" target="Wk8HpcPnZ-8Hc3H_M3Av-19">
          <mxGeometry relative="1" as="geometry" />
        </mxCell>
        <mxCell id="Wk8HpcPnZ-8Hc3H_M3Av-21" value="comprobar lista" style="rounded=1;whiteSpace=wrap;html=1;" vertex="1" parent="1">
          <mxGeometry x="320" y="280" width="120" height="40" as="geometry" />
        </mxCell>
        <mxCell id="Wk8HpcPnZ-8Hc3H_M3Av-22" style="edgeStyle=orthogonalEdgeStyle;rounded=0;orthogonalLoop=1;jettySize=auto;html=1;exitX=0;exitY=0.5;exitDx=0;exitDy=0;entryX=0;entryY=0.5;entryDx=0;entryDy=0;" edge="1" parent="1" source="Wk8HpcPnZ-8Hc3H_M3Av-23" target="Wk8HpcPnZ-8Hc3H_M3Av-6">
          <mxGeometry relative="1" as="geometry">
            <Array as="points">
              <mxPoint x="80" y="380" />
              <mxPoint x="80" y="1100" />
            </Array>
          </mxGeometry>
        </mxCell>
        <mxCell id="Wk8HpcPnZ-8Hc3H_M3Av-23" value="informar lista vacia" style="rounded=1;whiteSpace=wrap;html=1;" vertex="1" parent="1">
          <mxGeometry x="120" y="360" width="120" height="40" as="geometry" />
        </mxCell>
        <mxCell id="Wk8HpcPnZ-8Hc3H_M3Av-24" style="edgeStyle=orthogonalEdgeStyle;rounded=0;orthogonalLoop=1;jettySize=auto;html=1;exitX=0.5;exitY=1;exitDx=0;exitDy=0;entryX=0.5;entryY=0;entryDx=0;entryDy=0;" edge="1" parent="1" source="Wk8HpcPnZ-8Hc3H_M3Av-25" target="Wk8HpcPnZ-8Hc3H_M3Av-27">
          <mxGeometry relative="1" as="geometry" />
        </mxCell>
        <mxCell id="Wk8HpcPnZ-8Hc3H_M3Av-25" value="mostrar lista" style="rounded=1;whiteSpace=wrap;html=1;" vertex="1" parent="1">
          <mxGeometry x="120" y="440" width="120" height="40" as="geometry" />
        </mxCell>
        <mxCell id="Wk8HpcPnZ-8Hc3H_M3Av-26" style="edgeStyle=orthogonalEdgeStyle;rounded=0;orthogonalLoop=1;jettySize=auto;html=1;exitX=0.5;exitY=1;exitDx=0;exitDy=0;" edge="1" parent="1" source="Wk8HpcPnZ-8Hc3H_M3Av-27" target="Wk8HpcPnZ-8Hc3H_M3Av-8">
          <mxGeometry relative="1" as="geometry" />
        </mxCell>
        <mxCell id="Wk8HpcPnZ-8Hc3H_M3Av-27" value="seleccionar préstamo" style="rounded=1;whiteSpace=wrap;html=1;" vertex="1" parent="1">
          <mxGeometry x="120" y="520" width="120" height="40" as="geometry" />
        </mxCell>
        <mxCell id="Wk8HpcPnZ-8Hc3H_M3Av-28" style="edgeStyle=orthogonalEdgeStyle;rounded=0;orthogonalLoop=1;jettySize=auto;html=1;exitX=0.5;exitY=1;exitDx=0;exitDy=0;entryX=0.5;entryY=0;entryDx=0;entryDy=0;" edge="1" parent="1" source="Wk8HpcPnZ-8Hc3H_M3Av-29" target="Wk8HpcPnZ-8Hc3H_M3Av-31">
          <mxGeometry relative="1" as="geometry" />
        </mxCell>
        <mxCell id="Wk8HpcPnZ-8Hc3H_M3Av-29" value="mostrar formulario" style="rounded=1;whiteSpace=wrap;html=1;" vertex="1" parent="1">
          <mxGeometry x="120" y="680" width="120" height="40" as="geometry" />
        </mxCell>
        <mxCell id="Wk8HpcPnZ-8Hc3H_M3Av-30" style="edgeStyle=orthogonalEdgeStyle;rounded=0;orthogonalLoop=1;jettySize=auto;html=1;exitX=0.5;exitY=1;exitDx=0;exitDy=0;entryX=0.5;entryY=0;entryDx=0;entryDy=0;" edge="1" parent="1" source="Wk8HpcPnZ-8Hc3H_M3Av-31" target="Wk8HpcPnZ-8Hc3H_M3Av-42">
          <mxGeometry relative="1" as="geometry" />
        </mxCell>
        <mxCell id="Wk8HpcPnZ-8Hc3H_M3Av-31" value="modificar formulario" style="rounded=1;whiteSpace=wrap;html=1;" vertex="1" parent="1">
          <mxGeometry x="120" y="760" width="120" height="40" as="geometry" />
        </mxCell>
        <mxCell id="Wk8HpcPnZ-8Hc3H_M3Av-32" style="edgeStyle=orthogonalEdgeStyle;rounded=0;orthogonalLoop=1;jettySize=auto;html=1;exitX=0.5;exitY=1;exitDx=0;exitDy=0;entryX=0.5;entryY=0;entryDx=0;entryDy=0;" edge="1" parent="1" source="Wk8HpcPnZ-8Hc3H_M3Av-33" target="Wk8HpcPnZ-8Hc3H_M3Av-36">
          <mxGeometry relative="1" as="geometry" />
        </mxCell>
        <mxCell id="Wk8HpcPnZ-8Hc3H_M3Av-33" value="validar datos" style="rounded=1;whiteSpace=wrap;html=1;" vertex="1" parent="1">
          <mxGeometry x="320" y="840" width="120" height="40" as="geometry" />
        </mxCell>
        <mxCell id="Wk8HpcPnZ-8Hc3H_M3Av-34" style="edgeStyle=orthogonalEdgeStyle;rounded=0;orthogonalLoop=1;jettySize=auto;html=1;exitX=0;exitY=0.5;exitDx=0;exitDy=0;" edge="1" parent="1" source="Wk8HpcPnZ-8Hc3H_M3Av-36" target="Wk8HpcPnZ-8Hc3H_M3Av-38">
          <mxGeometry relative="1" as="geometry" />
        </mxCell>
        <mxCell id="Wk8HpcPnZ-8Hc3H_M3Av-35" style="edgeStyle=orthogonalEdgeStyle;rounded=0;orthogonalLoop=1;jettySize=auto;html=1;exitX=0.5;exitY=1;exitDx=0;exitDy=0;entryX=0.5;entryY=0;entryDx=0;entryDy=0;" edge="1" parent="1" source="Wk8HpcPnZ-8Hc3H_M3Av-36" target="Wk8HpcPnZ-8Hc3H_M3Av-40">
          <mxGeometry relative="1" as="geometry" />
        </mxCell>
        <mxCell id="Wk8HpcPnZ-8Hc3H_M3Av-36" value="" style="rhombus;whiteSpace=wrap;html=1;" vertex="1" parent="1">
          <mxGeometry x="360" y="920" width="40" height="40" as="geometry" />
        </mxCell>
        <mxCell id="Wk8HpcPnZ-8Hc3H_M3Av-37" style="edgeStyle=orthogonalEdgeStyle;rounded=0;orthogonalLoop=1;jettySize=auto;html=1;exitX=0;exitY=0.5;exitDx=0;exitDy=0;entryX=0;entryY=0.5;entryDx=0;entryDy=0;" edge="1" parent="1" source="Wk8HpcPnZ-8Hc3H_M3Av-38" target="Wk8HpcPnZ-8Hc3H_M3Av-29">
          <mxGeometry relative="1" as="geometry" />
        </mxCell>
        <mxCell id="Wk8HpcPnZ-8Hc3H_M3Av-38" value="informar error" style="rounded=1;whiteSpace=wrap;html=1;" vertex="1" parent="1">
          <mxGeometry x="120" y="920" width="120" height="40" as="geometry" />
        </mxCell>
        <mxCell id="Wk8HpcPnZ-8Hc3H_M3Av-39" style="edgeStyle=orthogonalEdgeStyle;rounded=0;orthogonalLoop=1;jettySize=auto;html=1;exitX=1;exitY=0.5;exitDx=0;exitDy=0;entryX=0;entryY=0.5;entryDx=0;entryDy=0;" edge="1" parent="1" source="Wk8HpcPnZ-8Hc3H_M3Av-40" target="Wk8HpcPnZ-8Hc3H_M3Av-44">
          <mxGeometry relative="1" as="geometry" />
        </mxCell>
        <mxCell id="Wk8HpcPnZ-8Hc3H_M3Av-40" value="modificar préstamo" style="rounded=1;whiteSpace=wrap;html=1;" vertex="1" parent="1">
          <mxGeometry x="320" y="1000" width="120" height="40" as="geometry" />
        </mxCell>
        <mxCell id="Wk8HpcPnZ-8Hc3H_M3Av-41" style="edgeStyle=orthogonalEdgeStyle;rounded=0;orthogonalLoop=1;jettySize=auto;html=1;exitX=1;exitY=0.5;exitDx=0;exitDy=0;entryX=0;entryY=0.5;entryDx=0;entryDy=0;" edge="1" parent="1" source="Wk8HpcPnZ-8Hc3H_M3Av-42" target="Wk8HpcPnZ-8Hc3H_M3Av-33">
          <mxGeometry relative="1" as="geometry" />
        </mxCell>
        <mxCell id="Wk8HpcPnZ-8Hc3H_M3Av-42" value="confirmar formulario" style="rounded=1;whiteSpace=wrap;html=1;" vertex="1" parent="1">
          <mxGeometry x="120" y="840" width="120" height="40" as="geometry" />
        </mxCell>
        <mxCell id="Wk8HpcPnZ-8Hc3H_M3Av-43" style="edgeStyle=orthogonalEdgeStyle;rounded=0;orthogonalLoop=1;jettySize=auto;html=1;exitX=0.5;exitY=1;exitDx=0;exitDy=0;entryX=1;entryY=0.5;entryDx=0;entryDy=0;" edge="1" parent="1" source="Wk8HpcPnZ-8Hc3H_M3Av-44" target="Wk8HpcPnZ-8Hc3H_M3Av-6">
          <mxGeometry relative="1" as="geometry" />
        </mxCell>
        <mxCell id="Wk8HpcPnZ-8Hc3H_M3Av-44" value="modificar tabla préstamos" style="rounded=1;whiteSpace=wrap;html=1;" vertex="1" parent="1">
          <mxGeometry x="520" y="1000" width="120" height="40" as="geometry" />
        </mxCell>
      </root>
    </mxGraphModel>
  </diagram>
</mxfile>
